<svg xmlns="http://www.w3.org/2000/svg" viewBox="0 0 25.92 25.92"><defs><style>.a{fill:#ffffff;stroke:gray; }</style></defs><path class="a" d="M-128.23,433.73a1.06,1.06,0,0,0-.11,1.49,1.06,1.06,0,0,0,1.49-.11l23.81-23.8a1.06,1.06,0,0,0,.11-1.49,1.06,1.06,0,0,0-1.49.11Z" transform="translate(128.6 -409.56)"/><path class="a" d="M-128.34,409.82a1.06,1.06,0,0,0,.11,1.49l23.81,23.8a1.06,1.06,0,0,0,1.49.11,1.06,1.06,0,0,0-.11-1.49l-23.81-23.8A1.06,1.06,0,0,0-128.34,409.82Z" transform="translate(128.6 -409.56)"/></svg>