<svg id="Layer_2" data-name="Layer 2" xmlns="http://www.w3.org/2000/svg" viewBox="0 0 94.94 94.16"><defs><style>.cls-1{fill:#826550;fill-rule:evenodd;}</style></defs><path class="cls-1" d="M119.52,45.88A47.19,47.19,0,0,0,111,32.78q-1,1.89-2,3.78a43.19,43.19,0,0,1,6.43,10C116.8,46.33,118.15,46.11,119.52,45.88Z" transform="translate(-29.23 -17.49)"/><path class="cls-1" d="M119.24,61.05c.1,1.16.16,2.33.16,3.52a43.08,43.08,0,0,1-43.08,43.08c-.79,0-1.57,0-2.35-.06a7.14,7.14,0,0,1,.22,1.84,6.72,6.72,0,0,1-.4,2.15c.83,0,1.68.07,2.53.07A47.13,47.13,0,0,0,123.4,64.57a46.4,46.4,0,0,0-.42-6.16A39.32,39.32,0,0,1,119.24,61.05Z" transform="translate(-29.23 -17.49)"/><path class="cls-1" d="M33.23,64.57A43.08,43.08,0,0,1,97.88,27.28c1.09-.86,2.21-1.74,3.37-2.62a47.06,47.06,0,1,0-42.36,83.63,18.25,18.25,0,0,1-.57-4.58A43.09,43.09,0,0,1,33.23,64.57Z" transform="translate(-29.23 -17.49)"/><path class="cls-1" d="M68,102.39c7.74-2.72,16.32-9.66,14.54-19.82-.9-5.15-4.48-5-7.27-9.25,14.44-12,24.22-28.66,33.05-46.27h-2c-7.44,5.67-21.91,17-28.41,26.44-2.61,3.78-4.6,9.31-7.27,13.88C66.1,75.11,55.52,88.6,64,98.43c-1.38,4.62-1.21,12.39,4,12.56C71.27,109.26,66.62,106.38,68,102.39Zm8.32-38.82a2.59,2.59,0,1,1-2.59,2.58A2.59,2.59,0,0,1,76.32,63.57ZM66,92.48c-1.86-9,7-17,11.9-9.25C78.18,90.65,71.74,99,66,92.48Z" transform="translate(-29.23 -17.49)"/><path class="cls-1" d="M85.19,68.69c14-5.2,30.57-7.75,39-18.5-9.42,1.37-18.12,3.46-27.76,4.62C94.29,61.05,89.39,64.52,85.19,68.69Z" transform="translate(-29.23 -17.49)"/><path class="cls-1" d="M41.57,57.46C37.35,69.7,50,73.45,63.38,71.33c3.78-4.81,5.85-10,2-15.86C60.47,48,44.45,49.1,41.57,57.46Zm5.29,7.26c-5.13-10.84,12.88-11.06,14.53-5.28C63.57,67.07,52.3,67.47,46.86,64.72Z" transform="translate(-29.23 -17.49)"/></svg>