<svg xmlns="http://www.w3.org/2000/svg" xmlns:xlink="http://www.w3.org/1999/xlink"><defs><style>.beard-icon{fill:#826550;}</style><style>.a{fill:#ffff;}</style><style>.a{fill:#826550;}</style></defs><symbol id="beard-icon" viewBox="0 0 22.07 21.21"><path class="beard-icon" d="M21.81,0h-.1c-1,3.3-1.26,7.32-4,8.85-.51-1.44-1.77-2.1-3.19-2.73A9.62,9.62,0,0,0,11.68,5a1,1,0,0,0-.65.14A.92.92,0,0,0,10.39,5,9.62,9.62,0,0,0,7.56,6.12c-1.43.63-2.68,1.29-3.19,2.73C1.61,7.32,1.35,3.3.36,0H.26A6.2,6.2,0,0,0,0,1,110.34,110.34,0,0,0,.82,13.22c.53,2.7,2.61,4.64,4.63,5.92C6.86,20,9.1,21.21,11,21.21S15.2,20,16.62,19.14c2-1.28,4.09-3.22,4.63-5.92A110.34,110.34,0,0,0,22.07,1,6.2,6.2,0,0,0,21.81,0Zm-6,12a1.8,1.8,0,0,1-1.44,1.49c-1.28.07-1.93-1.89-3.37-1.88s-2.09,1.95-3.37,1.88A1.8,1.8,0,0,1,6.22,12a3.24,3.24,0,0,1,.72-2.42c.47-.46,1.21-.4,2-.51A3.68,3.68,0,0,0,11,8.26h0a3.71,3.71,0,0,0,2.08.84c.8.11,1.54.05,2,.51A3.24,3.24,0,0,1,15.84,12Z"/></symbol><symbol id="clock-icon" viewBox="0 0 141.67 139.54"><path class="a" d="M419.83,710.46V690a1,1,0,0,0-2,0v20.46l1,0Z" transform="translate(-348 -689)"/><path class="a" d="M393.77,717.44c.57-.35,1.15-.68,1.73-1l-10.24-17.7a1,1,0,0,0-1.36-.36,1,1,0,0,0-.37,1.36Z" transform="translate(-348 -689)"/><path class="a" d="M358.5,723.73a1,1,0,0,0,.37,1.36l17.68,10.27c.32-.58.65-1.16,1-1.73l-17.68-10.27A1,1,0,0,0,358.5,723.73Z" transform="translate(-348 -689)"/><path class="a" d="M454.41,697.52a1,1,0,0,0-1.37.36l-10.8,18.6c.58.33,1.16.66,1.73,1l10.8-18.59A1,1,0,0,0,454.41,697.52Z" transform="translate(-348 -689)"/><path class="a" d="M479.78,724.67a1,1,0,0,0,.37-1.37,1,1,0,0,0-1.37-.36l-18.61,10.77c.34.56.67,1.14,1,1.73Z" transform="translate(-348 -689)"/><path class="a" d="M370.5,758.77c0-.33,0-.67,0-1H349a1,1,0,0,0,0,2h21.53C370.52,759.44,370.5,759.11,370.5,758.77Z" transform="translate(-348 -689)"/><path class="a" d="M488.67,757.77H467.14c0,.33,0,.67,0,1s0,.67,0,1h21.53a1,1,0,1,0,0-2Z" transform="translate(-348 -689)"/><path class="a" d="M478.8,792.45l-17.68-10.27c-.32.58-.65,1.16-1,1.73l17.68,10.27a1,1,0,1,0,1-1.73Z" transform="translate(-348 -689)"/><path class="a" d="M357.88,792.87a1,1,0,0,0,.51,1.87.93.93,0,0,0,.5-.14l18.61-10.76c-.35-.57-.67-1.15-1-1.74Z" transform="translate(-348 -689)"/><path class="a" d="M443.9,800.1c-.57.35-1.15.68-1.73,1l10.23,17.7a1,1,0,0,0,.87.5.93.93,0,0,0,.5-.14,1,1,0,0,0,.36-1.36Z" transform="translate(-348 -689)"/><path class="a" d="M382.89,818.65a1,1,0,0,0,.37,1.37,1,1,0,0,0,.5.14,1,1,0,0,0,.86-.5l10.81-18.6c-.59-.33-1.17-.65-1.73-1Z" transform="translate(-348 -689)"/><path class="a" d="M417.83,807.08v20.46a1,1,0,0,0,2,0V807.08l-1,0Z" transform="translate(-348 -689)"/><path class="a" d="M452.75,740.89a1.5,1.5,0,0,0-1.51-2.6l-28.43,16.45h0a5.65,5.65,0,0,0-7.95,0l-20.34-11.82a1.5,1.5,0,0,0-1.51,2.6l20.35,11.82a5.66,5.66,0,1,0,11.14,1.44,5.55,5.55,0,0,0-.19-1.43Zm-29.41,14.46,0-.08Zm.4.59,0,0Zm-9.78-.05,0,0Zm.42-.62-.05.06Zm4.45,6.17a2.67,2.67,0,1,1,2.67-2.67A2.67,2.67,0,0,1,418.83,761.44Z" transform="translate(-348 -689)"/></symbol><symbol id="icon" viewBox="0 0 50 60">
    <polygon points="25 60 50 50 25 48 25 48 0 50 25 60 25 60 25 60 25 60 25 60" fill="currentColor"/>
    <rect width="50" height="50" fill="currentColor"/></symbol><symbol id="mustache-icon" viewBox="0 0 44.98 12.9"><path class="a" d="M22.49,8.24a10.46,10.46,0,0,0,8.78,4.65C38.43,13.17,45,7.67,45,5.61,42.22,8.1,37.61,8.33,35.05,7.3,31.27,5.8,31.93,2.81,29.17.86a5.12,5.12,0,0,0-5.68,0,4.68,4.68,0,0,0-1,.81,4.94,4.94,0,0,0-1-.81,5.13,5.13,0,0,0-5.69,0c-2.75,2-2.09,4.93-5.87,6.44-2.56,1-7.17.8-9.93-1.69,0,2.06,6.55,7.56,13.71,7.28a10.46,10.46,0,0,0,8.78-4.65Z" transform="translate(0 0)"/></symbol><symbol id="scissors-icon" viewBox="0 0 21 20"><path fill="#826550" d="M8.5,4a4,4,0,1,0-4,4,2.93,2.93,0,0,0,1.6-.4L8.5,10,6.1,12.4A2.93,2.93,0,0,0,4.5,12a4,4,0,1,0,4,4,2.93,2.93,0,0,0-.4-1.6L10.5,12l7,7h4L8.1,5.6A2.93,2.93,0,0,0,8.5,4Zm-4,2a2,2,0,1,1,2-2,2,2,0,0,1-2,2Zm0,12a2,2,0,1,1,2-2,2,2,0,0,1-2,2Zm6-8.5a.5.5,0,1,1-.5.5.47.47,0,0,1,.5-.5ZM21.5,1h-4l-6,6,2,2,8-8Z" transform="translate(-0.5)"/></symbol></svg>