<svg id="Layer_2" data-name="Layer 2" xmlns="http://www.w3.org/2000/svg" viewBox="0 0 94.94 94.16"><defs><style>.cls-1{fill:#826550;fill-rule:evenodd}</style></defs><path class="cls-1" d="M119.52 45.88a47.19 47.19 0 00-8.52-13.1l-2 3.78a43.19 43.19 0 016.43 10c1.37-.23 2.72-.45 4.09-.68zm-.28 15.17c.1 1.16.16 2.33.16 3.52a43.08 43.08 0 01-43.08 43.08c-.79 0-1.57 0-2.35-.06a7.14 7.14 0 01.22 1.84 6.72 6.72 0 01-.4 2.15c.83 0 1.68.07 2.53.07a47.13 47.13 0 0047.08-47.08 46.4 46.4 0 00-.42-6.16 39.32 39.32 0 01-3.74 2.64zm-86.01 3.52a43.08 43.08 0 0164.65-37.29c1.09-.86 2.21-1.74 3.37-2.62a47.06 47.06 0 10-42.36 83.63 18.25 18.25 0 01-.57-4.58 43.09 43.09 0 01-25.09-39.14z" transform="translate(-29.23 -17.49)"/><path class="cls-1" d="M68 102.39c7.74-2.72 16.32-9.66 14.54-19.82-.9-5.15-4.48-5-7.27-9.25 14.44-12 24.22-28.66 33.05-46.27h-2c-7.44 5.67-21.91 17-28.41 26.44-2.61 3.78-4.6 9.31-7.27 13.88C66.1 75.11 55.52 88.6 64 98.43c-1.38 4.62-1.21 12.39 4 12.56 3.27-1.73-1.38-4.61 0-8.6zm8.32-38.82a2.59 2.59 0 11-2.59 2.58 2.59 2.59 0 012.59-2.58zM66 92.48c-1.86-9 7-17 11.9-9.25.28 7.42-6.16 15.77-11.9 9.25z" transform="translate(-29.23 -17.49)"/><path class="cls-1" d="M85.19 68.69c14-5.2 30.57-7.75 39-18.5-9.42 1.37-18.12 3.46-27.76 4.62-2.14 6.24-7.04 9.71-11.24 13.88zM41.57 57.46C37.35 69.7 50 73.45 63.38 71.33c3.78-4.81 5.85-10 2-15.86-4.91-7.47-20.93-6.37-23.81 1.99zm5.29 7.26c-5.13-10.84 12.88-11.06 14.53-5.28 2.18 7.63-9.09 8.03-14.53 5.28z" transform="translate(-29.23 -17.49)"/></svg>